<svg xmlns="http://www.w3.org/2000/svg" viewBox="0 0 185.1 69.07"><defs><clipPath id="a"><path d="M0 0h185.1v69.07H0z" style="fill:none"/></clipPath><style>.c{fill:#df4145}.d{fill:#3c3938}</style></defs><g style="clip-path:url(#a)"><path d="m56.88 38.9-13.35-7.71-14.59-8.42a3.74 3.74 0 0 1-1.88-3.25V8.68a8.4 8.4 0 0 1 1-4.14 10 10 0 0 1 1.63-2.2A5.45 5.45 0 0 1 34.5.92a10.7 10.7 0 0 1 3.5 1.3l17.25 10A10.17 10.17 0 0 1 60.39 21v17.29a1.52 1.52 0 0 1-2.28 1.32ZM22.28 6.47l.07 15.41.08 16.74a3.94 3.94 0 0 1-2 3.43l-9.18 5.36a9 9 0 0 1-4.6 1.24A10 10 0 0 1 5 48.48a5.85 5.85 0 0 1-4.46-4.22 11 11 0 0 1-.45-3L0 21.42a10.39 10.39 0 0 1 5.15-9l13.65-8 .88-.51a1.73 1.73 0 0 1 2.6 1.48ZM11.64 52.75 24.93 45l14.39-8.5a4 4 0 0 1 4 0l9.38 5.33a8.36 8.36 0 0 1 3.3 3.28l.23.44a6 6 0 0 1-.76 6.81 11.2 11.2 0 0 1-2.6 2.13l-17.05 10a10.47 10.47 0 0 1-10.47.07l-13.7-7.78-.76-.43a1.81 1.81 0 0 1 0-3.13Z" class="c"/><path d="M75.54.65H89.1v50.22H75.54zM94 .65h20.66c15.5 0 23.75 9 23.75 25.11s-8.25 25.11-23.75 25.11H94Zm30.49 25.11c0-9.69-2.44-13.35-11.26-13.35h-5.67V39.1h5.67c8.82 0 11.26-3.73 11.26-13.34M140.68 33.36h14.14c.21 3.81 2.15 7 7.89 7 4.16 0 7-1.57 7-4.73 0-2.23-1.44-3.37-5.31-4.16l-7.25-1.44c-7.46-1.43-15.13-4.66-15.13-14.63C142.05 4.88 150.8 0 162.57 0c12.05 0 20.37 5.17 20.37 16.65h-14.13c.28-4.31-3.23-5.46-6.6-5.46-4.52 0-5.89 2.3-5.89 4.24 0 1.29.72 3.08 4 3.8l6.46 1.29c13.41 2.65 17.36 7.75 17.36 15.07 0 11.69-10.12 16-21.52 16-13.2 0-22-6-22-18.23M75.77 59.99h1.04v7h-1.04zM80 62.54A1.31 1.31 0 0 0 78.58 64v3h-1v-5.2h1v1a1.69 1.69 0 0 1 1.75-1.14c1 0 1.84.59 1.84 2.06V67h-1v-3c0-.93-.4-1.44-1.22-1.44M83.37 65.67v-3.08h-.85v-.8h.85v-1.31h1v1.31h1v.8h-1v2.91c0 .51.17.74.73.74a3 3 0 0 0 .37 0V67a2.6 2.6 0 0 1-.65.08c-.87 0-1.46-.37-1.46-1.39M85.65 64.4a2.39 2.39 0 0 1 2.48-2.71c1.34 0 2.37.81 2.37 2.63a2 2 0 0 1 0 .39h-3.88c.08 1.09.63 1.59 1.56 1.59a1.28 1.28 0 0 0 1.35-.84h.9a2.13 2.13 0 0 1-2.26 1.63 2.39 2.39 0 0 1-2.52-2.69m3.89-.4a1.34 1.34 0 0 0-1.42-1.47A1.42 1.42 0 0 0 86.63 64ZM91 67.4h.89c0 .59.67.89 1.4.89a1.37 1.37 0 0 0 1.56-1.42V66a2 2 0 0 1-1.72.86c-1.14 0-2.26-.75-2.26-2.59a2.27 2.27 0 0 1 2.26-2.59 2 2 0 0 1 1.72.86v-.76h1v5.08c0 1.8-1.46 2.2-2.55 2.2S91 68.71 91 67.4m3.9-3.12A1.56 1.56 0 1 0 93.32 66a1.55 1.55 0 0 0 1.55-1.75M96.6 61.79h1V63a1.58 1.58 0 0 1 1.59-1.26 1.3 1.3 0 0 1 .39.05v.85a2.4 2.4 0 0 0-.38 0 1.58 1.58 0 0 0-1.63 1.79V67h-1ZM99.54 65.63c0-1 .73-1.41 1.66-1.52l1.29-.15c.48-.06.64-.15.64-.31v-.14c0-.83-.43-1-1.16-1s-1.17.22-1.17.88v.12h-1v-.21c0-1 .73-1.56 2.16-1.56s2.15.55 2.15 1.81V67h-1v-.84a2 2 0 0 1-1.87.94c-1 0-1.74-.43-1.74-1.46m3.59-.57v-.57c-.07.11-.2.18-.71.24l-1 .13c-.65.08-.89.31-.89.72s.35.72 1 .72c1.1 0 1.6-.68 1.6-1.24M105.25 65.67v-3.08h-.85v-.8h.85v-1.31h1v1.31h1v.8h-1v2.91c0 .51.17.74.73.74a3 3 0 0 0 .37 0V67a2.6 2.6 0 0 1-.65.08c-.87 0-1.46-.37-1.46-1.39M107.53 64.4a2.39 2.39 0 0 1 2.47-2.71c1.34 0 2.37.81 2.37 2.63a2 2 0 0 1 0 .39h-3.87c.08 1.09.63 1.59 1.56 1.59a1.28 1.28 0 0 0 1.35-.84h.9a2.13 2.13 0 0 1-2.26 1.63 2.39 2.39 0 0 1-2.52-2.69m3.89-.45a1.34 1.34 0 0 0-1.42-1.47 1.42 1.42 0 0 0-1.49 1.52ZM112.7 64.39c0-1.89 1.16-2.7 2.32-2.7a1.93 1.93 0 0 1 1.74.92V60h1v7h-1v-.82a1.93 1.93 0 0 1-1.74.92c-1.16 0-2.32-.82-2.32-2.7m4.11 0a1.63 1.63 0 0 0-1.58-1.85c-.81 0-1.57.58-1.57 1.85s.76 1.85 1.57 1.85a1.63 1.63 0 0 0 1.58-1.85M120.49 60h2.39c2.2 0 3.31 1.26 3.31 3.5s-1.11 3.5-3.31 3.5h-2.39Zm4.64 3.5c0-1.77-.69-2.59-2.35-2.59h-1.25v5.18h1.25c1.66 0 2.35-.83 2.35-2.59M126.55 64.4a2.39 2.39 0 0 1 2.45-2.71c1.34 0 2.37.81 2.37 2.63a2 2 0 0 1 0 .39h-3.84c.08 1.09.63 1.59 1.56 1.59a1.28 1.28 0 0 0 1.35-.84h.9a2.15 2.15 0 0 1-2.26 1.63 2.39 2.39 0 0 1-2.52-2.69m3.89-.45a1.35 1.35 0 0 0-1.45-1.47 1.42 1.42 0 0 0-1.47 1.52ZM131.67 65.63c0-1 .73-1.41 1.66-1.52l1.29-.15c.48-.06.64-.15.64-.31v-.14c0-.83-.43-1-1.16-1s-1.17.22-1.17.88v.12h-1v-.21c0-1 .73-1.56 2.16-1.56s2.15.55 2.15 1.81V67h-1v-.84a2 2 0 0 1-1.87.94c-1 0-1.74-.43-1.74-1.46m3.59-.57v-.57c-.07.11-.2.18-.71.24l-1 .13c-.65.08-.89.31-.89.72s.35.72 1 .72c1.1 0 1.6-.68 1.6-1.24M137.03 59.99h1.01v7h-1.01zM138.56 64.4a2.39 2.39 0 0 1 2.44-2.71c1.34 0 2.36.81 2.36 2.63a2 2 0 0 1 0 .39h-3.84c.08 1.09.63 1.59 1.56 1.59a1.26 1.26 0 0 0 1.34-.84h.91a2.15 2.15 0 0 1-2.26 1.63 2.39 2.39 0 0 1-2.52-2.69m3.89-.45a1.35 1.35 0 0 0-1.44-1.47 1.42 1.42 0 0 0-1.46 1.52ZM143.93 61.79h1V63a1.58 1.58 0 0 1 1.59-1.26 1.3 1.3 0 0 1 .39.05v.85a2.4 2.4 0 0 0-.38 0 1.58 1.58 0 0 0-1.63 1.79V67h-1ZM149.07 64.87h1.06c0 .75.54 1.34 1.7 1.34s1.58-.46 1.58-1.18-.49-1-1.26-1.13l-.94-.19c-1.19-.24-1.94-.8-1.94-1.88s.93-1.93 2.51-1.93 2.51.73 2.51 2h-1c0-.66-.53-1.08-1.48-1.08s-1.41.47-1.41 1 .3.87 1.13 1l.9.18c1.39.28 2.11.85 2.11 2 0 1.36-1.07 2.07-2.67 2.07-1.77 0-2.75-.87-2.75-2.22M156.55 67.36a.83.83 0 0 0 0-.69l-1.95-4.88h1l1.49 4 1.5-4h1l-2.2 5.5c-.54 1.34-1.18 1.77-2.34 1.64v-.86a1.12 1.12 0 0 0 1.4-.71M159.56 65.44h.91c.08.64.63.87 1.27.87s1.14-.23 1.14-.79-.29-.59-.78-.7l-1-.22c-1-.23-1.42-.73-1.42-1.43 0-1 .81-1.48 2-1.48s2 .56 2 1.63h-.85c-.09-.64-.53-.85-1.18-.85s-1.05.23-1.05.68.23.58.77.7l1 .22c.84.2 1.47.54 1.47 1.43 0 1.15-1 1.59-2.18 1.59s-2.14-.52-2.17-1.65M164.88 65.67v-3.08H164v-.8h.85v-1.31h1v1.31h1v.8h-1v2.91c0 .51.17.74.73.74a3 3 0 0 0 .37 0V67a2.6 2.6 0 0 1-.65.08c-.87 0-1.46-.37-1.46-1.39M167.16 64.4a2.39 2.39 0 0 1 2.48-2.71c1.34 0 2.37.81 2.37 2.63a3 3 0 0 1 0 .39h-3.85c.08 1.09.63 1.59 1.56 1.59a1.28 1.28 0 0 0 1.35-.84h.9a2.13 2.13 0 0 1-2.26 1.63 2.39 2.39 0 0 1-2.52-2.69m3.89-.45a1.34 1.34 0 0 0-1.42-1.47 1.42 1.42 0 0 0-1.52 1.52ZM178.14 62.54c-.73 0-1.23.51-1.23 1.44v3h-1V64c0-.93-.37-1.44-1.12-1.44s-1.24.51-1.24 1.44v3h-1v-5.2h1v1a1.61 1.61 0 0 1 1.61-1.14 1.57 1.57 0 0 1 1.61 1.18 1.72 1.72 0 0 1 1.71-1.18c1 0 1.77.59 1.77 2.06V67h-1v-3c0-.93-.36-1.44-1.12-1.44M180.75 65.44h.91c.08.64.63.87 1.27.87s1.14-.23 1.14-.79-.29-.59-.78-.7l-1-.22c-1-.23-1.42-.73-1.42-1.43 0-1 .81-1.48 2-1.48s2 .56 2 1.63h-.85c-.09-.64-.53-.85-1.18-.85s-1.05.23-1.05.68.23.58.77.7l1 .22c.84.2 1.47.54 1.47 1.43 0 1.15-1 1.59-2.18 1.59s-2.14-.52-2.17-1.65" class="d"/></g></svg>